<svg xmlns="http://www.w3.org/2000/svg">
    <symbol id="wallet" viewBox="0 0 469.341 469.341">
        <g>
            <path d="M448.004,236.639v-65.965c0-22.368-17.35-40.559-39.271-42.323l-61.26-107c-5.677-9.896-14.844-16.969-25.813-19.906
				c-10.917-2.917-22.333-1.385-32.104,4.302L79.553,128.007H42.67c-23.531,0-42.667,19.135-42.667,42.667v256
				c0,23.531,19.135,42.667,42.667,42.667h362.667c23.531,0,42.667-19.135,42.667-42.667v-65.965
				c12.389-4.418,21.333-16.147,21.333-30.035v-64C469.337,252.786,460.393,241.057,448.004,236.639z M383.944,128.007h-92.971
				l69.729-40.596L383.944,128.007z M350.103,68.898l-101.529,59.109h-42.113l133.112-77.5L350.103,68.898z M300.295,24.184
				c4.823-2.823,10.458-3.573,15.844-2.135c5.448,1.458,9.99,4.979,12.813,9.906l0.022,0.039l-164.91,96.013h-42.111L300.295,24.184
				z M426.67,426.674c0,11.76-9.573,21.333-21.333,21.333H42.67c-11.76,0-21.333-9.573-21.333-21.333v-256
				c0-11.76,9.573-21.333,21.333-21.333h362.667c11.76,0,21.333,9.573,21.333,21.333v64h-64c-35.292,0-64,28.708-64,64
				c0,35.292,28.708,64,64,64h64V426.674z M448.004,330.674c0,5.885-4.781,10.667-10.667,10.667H362.67
				c-23.531,0-42.667-19.135-42.667-42.667c0-23.531,19.135-42.667,42.667-42.667h74.667c5.885,0,10.667,4.781,10.667,10.667
				V330.674z" />
            <path d="M362.67,277.341c-11.76,0-21.333,9.573-21.333,21.333c0,11.76,9.573,21.333,21.333,21.333
				c11.76,0,21.333-9.573,21.333-21.333C384.004,286.914,374.431,277.341,362.67,277.341z" />
        </g>
    </symbol>
    <symbol id="add-people" viewBox="0 0 512 512">
        <g>
            <path d="M383.537,181.5a80,80,0,1,0-79.139-.037c-26.07,7.432-49.479,22.306-68.325,43.68a140.15,140.15,0,0,0-28.516-11.655,80,80,0,1,0-79.094.012A143.766,143.766,0,0,0,60.187,257C31.692,289.19,16,334.292,16,384a8,8,0,0,0,4.115,6.993C23.129,392.668,94.769,432,168,432a269.863,269.863,0,0,0,57.458-6.466,95.993,95.993,0,0,0,182.2-33.422c48.906-11.75,83.034-32.379,84.517-33.286A8,8,0,0,0,496,352c0-49.708-15.692-94.81-44.187-127A143.766,143.766,0,0,0,383.537,181.5ZM280,112a64,64,0,1,1,64,64A64.072,64.072,0,0,1,280,112ZM104,144a64,64,0,1,1,64,64A64.072,64.072,0,0,1,104,144ZM219.7,410.408A252.5,252.5,0,0,1,168,416c-59.383,0-119.8-28.588-135.947-36.81.964-43.875,15.122-83.351,40.114-111.581C97.062,239.487,131.1,224,168,224c47.507,0,89.391,25.567,113.745,68.889A96.039,96.039,0,0,0,219.7,410.408ZM312,464a80,80,0,1,1,80-80A80.091,80.091,0,0,1,312,464Zm95.631-88.365a96.018,96.018,0,0,0-109.765-86.592c-12.1-22.946-28.535-41.682-47.973-55.335C274.629,206.747,307.719,192,344,192c36.9,0,70.938,15.487,95.833,43.609,25.029,28.273,39.192,67.82,40.119,111.776A319.106,319.106,0,0,1,407.631,375.635Z" />
            <path d="M352,376H320V344a8,8,0,0,0-16,0v32H272a8,8,0,0,0,0,16h32v32a8,8,0,0,0,16,0V392h32a8,8,0,0,0,0-16Z" />
        </g>
    </symbol>
    <symbol id="no-risk" viewBox="0 0 471.7 471.7">
        <g>
            <path d="M360.8,200.6v-74.7c0.2-33.8-13.3-66.3-37.4-90C300.1,12.7,269.6,0,237.3,0c-0.5,0-1.1,0-1.6,0
			c-68.9,0.1-124.9,56.5-124.9,125.9v74.7c-26,3.1-45,24.9-45,51.3v167.8c0,28.5,22.8,52,51.3,52h237.5c28.5,0,51.3-23.5,51.3-52
			V251.9C405.8,225.6,386.8,203.7,360.8,200.6z M130.7,125.9h0.1c0-58.4,47.1-106.2,105-106.2h0.1c27.5-0.1,53.9,10.8,73.4,30.2
			c20.3,20.1,31.6,47.5,31.4,76v74.8h-22v-74.8c0.2-22.7-8.8-44.5-24.9-60.5c-15.2-15.2-35.8-23.8-57.3-23.8h-0.6
			c-46,0-83.2,37.8-83.2,84.2v74.9h-22V125.9z M298.8,125.9v74.8h-126v-74.8c0-35.4,28.2-64.2,63.2-64.2h0.6
			c16.2,0,31.8,6.5,43.3,18C292.1,91.9,299,108.6,298.8,125.9z M386.8,420L386.8,420c0,17.5-14.2,31.7-31.7,31.7H117.5
			c-17.5,0-31.7-14.2-31.7-31.7V252.4c0-17.5,14.2-31.7,31.7-31.7h237.6c17.5,0,31.7,14.2,31.7,31.7V420z" />
        </g>
        <g>
            <path d="M270.4,330c-4.4-15.5-18.5-26.1-34.6-26.1c-19.9,0-36.1,16.1-36.1,36.1c0,16.1,10.6,30.2,26.1,34.6v28c0,5.5,4.5,10,10,10
			s10-4.5,10-10v-28C264.9,369.1,276,349.1,270.4,330z M235.8,356c-8.9,0-16.1-7.2-16.1-16.1c0-8.9,7.2-16.1,16.1-16.1
			c8.9,0,16.1,7.2,16.1,16.1C251.9,348.8,244.7,356,235.8,356z" />
        </g>
    </symbol>
    <symbol id="like" viewBox="0 0 512 512">
        <g>
            <path d="M503.153,288.622c0-12.709-5.48-24.237-14.253-32.253c13.736-7.368,23.1-21.872,23.1-38.521
			c0-24.085-19.595-43.68-43.68-43.68H343.914V93.996c0-32.341-9.31-55.665-27.67-69.327c-29.196-21.722-69.76-9.905-71.473-9.39
			c-3.508,1.052-5.911,4.281-5.911,7.943V135.36l-81.323,103.501c-2.541-11.683-12.957-20.46-25.39-20.46H25.987
			C11.658,218.402,0,230.059,0,244.389v26.54c0,4.58,3.712,8.294,8.294,8.294c4.581,0,8.294-3.713,8.294-8.294v-26.54
			c0-5.183,4.217-9.4,9.4-9.4h106.16c5.183,0,9.4,4.217,9.4,9.4v230.013c0,5.183-4.217,9.4-9.4,9.4H25.987
			c-5.183,0-9.4-4.216-9.4-9.4V306.315c0-4.58-3.712-8.294-8.294-8.294c-4.581,0-8.294,3.713-8.294,8.294v168.086
			c0,14.329,11.658,25.987,25.987,25.987h106.16c14.329,0,25.987-11.658,25.987-25.987v-21.967l41.077,20.539
			c1.152,0.576,2.422,0.876,3.709,0.876h159.24c4.581,0,8.294-3.713,8.294-8.294c0-4.58-3.712-8.294-8.294-8.294H204.878
			l-46.745-23.372V264.951l95.541-121.597c1.148-1.461,1.773-3.266,1.773-5.124V29.812c10.761-2.035,33.993-4.409,50.894,8.164
			c13.925,10.361,20.985,29.208,20.985,56.019v88.467c0,4.58,3.712,8.294,8.294,8.294h132.7c14.94,0,27.093,12.154,27.093,27.093
			c0,14.939-12.153,27.093-27.093,27.093c-1.663,0-70.773,0-70.773,0c-4.581,0-8.294,3.713-8.294,8.294
			c0,4.58,3.712,8.294,8.294,8.294c0,0,63.33,0.041,63.622,0.06c14.242,0.876,25.398,12.751,25.398,27.033
			c0,14.939-12.153,27.093-27.093,27.093c-1.087,0-61.927,0-61.927,0c-4.581,0-8.294,3.713-8.294,8.294
			c0,4.58,3.712,8.294,8.294,8.294h55.366c0.355,0.093,0.717,0.172,1.09,0.219c13.521,1.678,23.717,13.23,23.717,26.874
			c0,14.939-12.153,27.093-27.093,27.093c-0.571,0-53.08,0-53.08,0c-4.581,0-8.294,3.713-8.294,8.294
			c0,4.58,3.712,8.294,8.294,8.294h47.671c0.51,0.208,1.045,0.372,1.606,0.477c12.776,2.403,22.049,13.596,22.049,26.616
			c0,14.939-12.153,27.093-27.093,27.093h-44.233c-4.581,0-8.294,3.713-8.294,8.294c0,4.58,3.712,8.294,8.294,8.294h44.233
			c24.085,0,43.68-19.595,43.68-43.68c0-12.637-5.422-24.209-14.233-32.263c13.726-7.371,23.08-21.869,23.08-38.511
			c0-12.67-5.454-24.219-14.246-32.256C493.795,319.77,503.153,305.269,503.153,288.622z" />
        </g>
        <g>
            <path d="M96.76,413.028c-14.329,0-25.987,11.658-25.987,25.987c0,14.329,11.658,25.987,25.987,25.987s25.987-11.658,25.987-25.987
        			C122.747,424.686,111.09,413.028,96.76,413.028z M96.76,448.415c-5.183,0-9.4-4.216-9.4-9.4s4.216-9.4,9.4-9.4s9.4,4.217,9.4,9.4
        			S101.943,448.415,96.76,448.415z" />
        </g>
    </symbol>
    <symbol id="group-add" viewBox="0 0 69.28 68.73">
        <g>
            <path class="cls-1" d="M21.55,64.54V53.15l.26-.11,2.48,2.48a2.24,2.24,0,0,1,.66,1.58v8.34a1,1,0,0,0,1,1H26a1,1,0,0,0,1-1V57.1a4.27,4.27,0,0,0-1.25-3l-3.24-3.24a3.31,3.31,0,0,1,1-.73l5.8-2.58,4.3,4.3V67.77a1,1,0,0,0,1,1h.1a1,1,0,0,0,1-1V51.83l4.3-4.3,5.8,2.58a3.31,3.31,0,0,1,1,.73l-3.24,3.24a4.27,4.27,0,0,0-1.25,3v8.34a1,1,0,0,0,1,1h.1a1,1,0,0,0,1-1V57.1A2.24,2.24,0,0,1,45,55.51L47.7,52.8h0V64.54a1,1,0,0,0,1,1h.1a1,1,0,0,0,1-1V53.15a5.35,5.35,0,0,0-3.18-4.89l-5.9-2.62A1.15,1.15,0,0,1,40,44.58V43a8.59,8.59,0,0,0,3.25-6.73V33.95a2.1,2.1,0,0,0,1.08-1.84v-.22a8.61,8.61,0,0,0-8.61-8.61H33.55a8.61,8.61,0,0,0-8.61,8.61v2a2.13,2.13,0,0,0,.81,1.71,2,2,0,0,0,.28.18v.45A8.59,8.59,0,0,0,29.28,43v1.62a1.15,1.15,0,0,1-.69,1.06l-5.9,2.62a5.35,5.35,0,0,0-3.18,4.89v11.4a1,1,0,0,0,1,1h.1A1,1,0,0,0,21.55,64.54ZM34.64,50,30.87,46.2a3.18,3.18,0,0,0,.45-1.63v-.41a8.6,8.6,0,0,0,6.65,0v.41a3.18,3.18,0,0,0,.45,1.63ZM28.06,36.23v-.46a6,6,0,0,0,1.84-1.2,1,1,0,0,0-1.38-1.49A3.64,3.64,0,0,1,27,34h0a.2.2,0,0,1,0-.09v-2a6.58,6.58,0,0,1,6.58-6.58h2.17a6.58,6.58,0,0,1,6.58,6.58v.22a.07.07,0,0,1,0,.07c-6.08,1.2-9.12-1.06-10.15-2.09a1,1,0,1,0-1.43,1.43c3.15,3.15,7.75,3.21,10.55,2.87v1.83a6.58,6.58,0,0,1-13.16,0Z"></path>
            <path class="cls-1" d="M18.3,42.73V40.56a7.52,7.52,0,0,0-3.45-6.32,4.22,4.22,0,0,0-2.91-5.32,3.42,3.42,0,0,0-1.18-.22A4.27,4.27,0,0,0,6.7,34.25a7.52,7.52,0,0,0-3.45,6.32v2.17a7.52,7.52,0,0,0,3.25,6.19v2.23a1.16,1.16,0,0,1-.64,1L2.36,53.94A4.27,4.27,0,0,0,0,57.76v2.3a1,1,0,0,0,1,1H1a1,1,0,0,0,1-1V58.2l1.65,1.65a2.24,2.24,0,0,1,.66,1.58v.75a1,1,0,0,0,1,1h.1a1,1,0,0,0,1-1v-.75a4.27,4.27,0,0,0-1.25-3l-2.3-2.3,0,0a2.27,2.27,0,0,1,.48-.33L6.78,54a3.25,3.25,0,0,0,.5-.31l2.48,2.48v7a1,1,0,0,0,1,1h.1a1,1,0,0,0,1-1v-7l2.48-2.48a3.18,3.18,0,0,0,.5.31l1,.48a1,1,0,0,0,.91-1.82l-1-.48a1.16,1.16,0,0,1-.64-1V48.92A7.52,7.52,0,0,0,18.3,42.73Zm-7.52-12A2.24,2.24,0,0,1,13,33a2.31,2.31,0,0,1,0,.4,7.53,7.53,0,0,0-4.4,0,2.3,2.3,0,0,1,0-.4A2.24,2.24,0,0,1,10.78,30.73Zm0,4.34a5.5,5.5,0,0,1,5.49,5.49v.37a6.37,6.37,0,0,1-6.85-2.06,1,1,0,0,0-1.53-.11,6.64,6.64,0,0,1-2.6,1.66A5.5,5.5,0,0,1,10.78,35.07Zm0,19.24L8.43,52a3.24,3.24,0,0,0,.11-.81V49.92a7.53,7.53,0,0,0,4.48,0v1.24a3.22,3.22,0,0,0,.11.81Zm0-6.09a5.5,5.5,0,0,1-5.49-5.49v-.21A8.13,8.13,0,0,0,8.54,40.9a9.17,9.17,0,0,0,1.88,1.37,8.07,8.07,0,0,0,3.88,1,8.51,8.51,0,0,0,2-.23A5.5,5.5,0,0,1,10.78,48.23Z"></path>
            <path class="cls-1" d="M67.25,55.59v4.1a1,1,0,0,0,1,1h0a1,1,0,0,0,1-1v-4.1a4.27,4.27,0,0,0-2.36-3.82l-5.68-2.84a1.15,1.15,0,0,1-.64-1V46.46a6.42,6.42,0,0,0,2.17-4.81V40.49h.07a1,1,0,0,0,1-1V37.31a6.44,6.44,0,0,0-6.44-6.44H55.25a6.44,6.44,0,0,0-6.44,6.44v2.17a1,1,0,0,0,1,1h.07v1.16a6.42,6.42,0,0,0,2.17,4.81V47.9A1.22,1.22,0,0,1,51.39,49a1,1,0,0,0,.94,1.8,3.2,3.2,0,0,0,.5-.31l2.48,2.48V63.16a1,1,0,0,0,1,1h.1a1,1,0,0,0,1-1V52.92l2.48-2.48a3.25,3.25,0,0,0,.5.31l5.5,2.75-1.67,1.67a4.27,4.27,0,0,0-1.25,3v4a1,1,0,0,0,1,1H64a1,1,0,0,0,1-1v-4a2.24,2.24,0,0,1,.66-1.58L67.17,55A2.26,2.26,0,0,1,67.25,55.59ZM50.84,38.26v-.95a4.41,4.41,0,0,1,4.41-4.41h2.17a4.41,4.41,0,0,1,4.41,4.41v1.13a15.52,15.52,0,0,1-7.1-2,1,1,0,0,0-1.28.13A6.65,6.65,0,0,1,50.84,38.26Zm5.49,12.8L54,48.71a3.22,3.22,0,0,0,.11-.81v-.22a6.43,6.43,0,0,0,4.48,0v.22a3.2,3.2,0,0,0,.11.81Zm0-5a4.41,4.41,0,0,1-4.41-4.41V40a8.59,8.59,0,0,0,2.38-1.45,18,18,0,0,0,6.44,1.83v1.26A4.41,4.41,0,0,1,56.33,46.06Z"></path>
            <path class="cls-1" d="M43.59,10.42H26.74a1,1,0,0,1,0-2H43.59a1,1,0,0,1,0,2Z"></path>
            <path class="cls-1" d="M35.16,18.85a1,1,0,0,1-1-1V1a1,1,0,0,1,2,0V17.85A1,1,0,0,1,35.16,18.85Z"></path>
        </g>
    </symbol>

    <symbol id="startup" viewBox="0 0 65.88 63.39">
        <g>
            <path class="cls-1" d="M37.56,43.87V38.1L39,36.67C55.16,20.5,53.53,11.25,53.45,10.86a1.17,1.17,0,0,0-.92-.92c-.39-.08-9.64-1.71-25.81,14.47l-1.43,1.43H19.53A7.37,7.37,0,0,0,14.28,28L2.85,39.44a1.17,1.17,0,0,0,.83,2H15.57l2.37,2.37-5.36,5.36a1.17,1.17,0,1,0,1.65,1.65l5.36-5.36L22,47.83V59.72a1.17,1.17,0,0,0,2,.83L35.38,49.11A7.37,7.37,0,0,0,37.56,43.87ZM51.19,12.21a14.92,14.92,0,0,1-.83,4.13L47.06,13A15,15,0,0,1,51.19,12.21ZM31.91,31.48a1.17,1.17,0,0,0-1.65,0L19.59,42.15l-2.71-2.71h0a1.33,1.33,0,0,1,0-1.88l2.65-2.65a1.17,1.17,0,1,0-1.65-1.65L15.23,35.9a3.67,3.67,0,0,0-1,3.19H6.5l9.43-9.43a5,5,0,0,1,3.59-1.49H23l-1.54,1.54a1.17,1.17,0,1,0,1.65,1.65l5.3-5.3A73.64,73.64,0,0,1,38,17.86l3.79,3.79A1.17,1.17,0,0,0,43.41,20l-3.46-3.46A37.07,37.07,0,0,1,44.67,14l4.76,4.76a37.17,37.17,0,0,1-2.58,4.73,1.17,1.17,0,0,0-1.57,1.73l.25.25A73.64,73.64,0,0,1,37.33,35L25.84,46.51a1.33,1.33,0,0,1-1.88,0h0L21.24,43.8,31.91,33.14A1.17,1.17,0,0,0,31.91,31.48ZM24.3,56.89v-7.7a3.67,3.67,0,0,0,3.19-1l7.73-7.73v3.43a5,5,0,0,1-1.49,3.59Z"></path>
            <path class="cls-1" d="M19.53,52.7h0A1.07,1.07,0,0,0,18,52.53C18,52.61,11.22,59.26,2.38,61c1.75-8.84,8.41-15.6,8.48-15.67a1.07,1.07,0,0,0-.17-1.49,1.07,1.07,0,0,0-1.49-.17C8.88,44,1.25,51.75,0,62A1.26,1.26,0,0,0,.4,63a1.26,1.26,0,0,0,1,.39c10.23-1.24,18-8.87,18.29-9.2A1.07,1.07,0,0,0,19.53,52.7Z"></path>
            <path class="cls-1" d="M39.31,28.77a3.67,3.67,0,1,0-5.19,0A3.67,3.67,0,0,0,39.31,28.77Zm-3.54-1.65a1.33,1.33,0,1,1,1.88,0A1.33,1.33,0,0,1,35.78,27.12Z"></path>
            <path class="cls-1" d="M55.18,53a1,1,0,0,1-1-1c0-3.57-2-5.54-5.54-5.54a1,1,0,0,1,0-2c3.57,0,5.54-2,5.54-5.54a1,1,0,0,1,2,0c0,3.57,2,5.54,5.54,5.54a1,1,0,1,1,0,2c-3.57,0-5.54,2-5.54,5.54A1,1,0,0,1,55.18,53ZM52.8,45.44a6.27,6.27,0,0,1,2.37,2.37,6.28,6.28,0,0,1,2.37-2.37,6.27,6.27,0,0,1-2.37-2.37A6.26,6.26,0,0,1,52.8,45.44Z"></path>
            <path class="cls-1" d="M14.86,9.25a1,1,0,0,1-1-1,1.75,1.75,0,0,0-2-2,1,1,0,0,1,0-2,1.75,1.75,0,0,0,2-2,1,1,0,0,1,2,0,1.75,1.75,0,0,0,2,2,1,1,0,0,1,0,2,1.75,1.75,0,0,0-2,2A1,1,0,0,1,14.86,9.25Zm-.18-4,.18.18L15,5.26l-.18-.18Z"></path>
            <path class="cls-1" d="M32.75,4.09A2,2,0,1,1,34.48.95h0a2,2,0,0,1-1.72,3.15Zm-.39-1.8a.46.46,0,0,0,.28.2A.48.48,0,0,0,33,2.43a.45.45,0,0,0-.14-.83.44.44,0,0,0-.34.06.46.46,0,0,0-.2.29A.45.45,0,0,0,32.37,2.29Zm0,0h0Z"></path>
            <path class="cls-1" d="M8,22.17a2,2,0,0,1-1.1-3.77A2,2,0,1,1,8,22.17Zm0-2.5a.45.45,0,0,0-.44.35.45.45,0,0,0,.34.54.45.45,0,0,0,.34-.06A.45.45,0,0,0,8,19.67Z"></path>
            <path class="cls-1" d="M63.84,11.91a2.07,2.07,0,0,1-.45,0,2,2,0,1,1,2.17-3.1h0a2,2,0,0,1-1.72,3.15Zm-.39-1.8a.46.46,0,0,0,.29.2.44.44,0,0,0,.34-.06.45.45,0,1,0-.63-.14Zm0,0h0Z"></path>
        </g>
    </symbol>
    <symbol id="support" viewBox="0 0 68.91 68.91">
        <g>
            <path class="cls-2" d="M19,33.38a1.25,1.25,0,0,1-.88-.37L13,27.89a1.25,1.25,0,0,1,0-1.77l5.39-5.39a1.25,1.25,0,0,1,1.77,1.77L15.61,27l4.25,4.25A1.25,1.25,0,0,1,19,33.38Z"></path>
            <path class="cls-2" d="M36.17,33.88a1.25,1.25,0,0,1-.88-2.13l4.42-4.42-4.17-4.17a1.25,1.25,0,1,1,1.77-1.77l5.06,5.06a1.25,1.25,0,0,1,0,1.77l-5.31,5.31A1.25,1.25,0,0,1,36.17,33.88Z"></path>
            <path class="cls-2" d="M24.56,34.76A1.25,1.25,0,0,1,23.44,33L30.72,17.8A1.25,1.25,0,1,1,33,18.88L25.69,34.05A1.25,1.25,0,0,1,24.56,34.76Z"></path>
            <path class="cls-2" d="M5.51,53.55A1.25,1.25,0,0,1,4.26,52.3V16.1A6.45,6.45,0,0,1,10.7,9.66H46.21a6.45,6.45,0,0,1,6.45,6.45v20.2a6.45,6.45,0,0,1-6.45,6.45h-25a3.94,3.94,0,0,0-1.92.5l-13,10A1.24,1.24,0,0,1,5.51,53.55Zm5.2-41.39A4,4,0,0,0,6.76,16.1V49.76l11.06-8.54.13-.09a6.45,6.45,0,0,1,3.25-.88h25a4,4,0,0,0,3.95-3.95V16.1a4,4,0,0,0-3.95-3.95Z"></path>
            <path class="cls-2" d="M57.22,52.89a1.25,1.25,0,0,1-.88-2.13L58,49.12l-1.77-1.77A1.25,1.25,0,1,1,58,45.58l2.65,2.65a1.25,1.25,0,0,1,0,1.77L58.1,52.53A1.25,1.25,0,0,1,57.22,52.89Z"></path>
            <path class="cls-2" d="M44.82,52.89a1.25,1.25,0,0,1-.88-.37l-2.65-2.65a1.25,1.25,0,0,1,0-1.77l2.53-2.53a1.25,1.25,0,0,1,1.77,1.77L43.93,49l1.77,1.77a1.25,1.25,0,0,1-.88,2.13Z"></path>
            <path class="cls-2" d="M49.67,53.57a1.25,1.25,0,0,1-1.16-1.72l2.57-6.41a1.25,1.25,0,0,1,2.32.93l-2.57,6.41A1.25,1.25,0,0,1,49.67,53.57Z"></path>
            <path class="cls-2" d="M64.43,67.36a1.25,1.25,0,0,1-.78-.28L55.47,60.5a2,2,0,0,0-1-.24H38.71a4.54,4.54,0,0,1-4.53-4.53V45.94a1.25,1.25,0,0,1,2.5,0v9.79a2,2,0,0,0,2,2H54.52a4.54,4.54,0,0,1,2.29.62l.15.11,6.22,5V39.41a2,2,0,0,0-2-2H55.72a1.25,1.25,0,0,1,0-2.5h5.43a4.54,4.54,0,0,1,4.53,4.53v26.7a1.25,1.25,0,0,1-1.25,1.25Z"></path>
            <path class="cls-2" d="M17.32,60.88a1,1,0,0,1-1-1,1.75,1.75,0,0,0-2-2,1,1,0,0,1,0-2,1.75,1.75,0,0,0,2-2,1,1,0,0,1,2,0,1.75,1.75,0,0,0,2,2,1,1,0,1,1,0,2,1.75,1.75,0,0,0-2,2A1,1,0,0,1,17.32,60.88Zm-.18-4,.18.18.18-.18-.18-.18Z"></path>
        </g>
    </symbol>
    
    <symbol id="file" viewBox="0 0 477.389 477.389">
        <g>
            <path d="M451.209,68.647c-16.787-16.799-39.564-26.234-63.312-26.226v0c-23.739-0.056-46.516,9.376-63.266,26.197L209.056,184.194
        			c-22.867,22.903-31.609,56.356-22.869,87.518c2.559,9.072,11.988,14.352,21.06,11.793c9.072-2.559,14.352-11.988,11.793-21.06
        			c-5.388-19.271,0.018-39.95,14.148-54.118L348.763,92.768c21.608-21.613,56.646-21.617,78.259-0.008
        			c21.613,21.608,21.617,56.646,0.009,78.259L311.456,286.594c-7.574,7.584-17.193,12.797-27.682,15.002
        			c-9.228,1.921-15.151,10.959-13.23,20.187c1.652,7.935,8.657,13.613,16.762,13.588c1.193,0.001,2.383-0.125,3.55-0.375
        			c16.951-3.575,32.494-12.007,44.732-24.269l115.576-115.558C486.114,160.243,486.134,103.598,451.209,68.647z" />
        </g>
        <g>
            <path d="M290.702,206.142c-2.559-9.072-11.988-14.352-21.06-11.793s-14.352,11.988-11.793,21.06
        			c5.388,19.271-0.018,39.95-14.148,54.118L128.125,385.103c-21.608,21.613-56.646,21.617-78.259,0.008
        			c-21.613-21.608-21.617-56.646-0.009-78.259l115.576-115.593c7.562-7.582,17.17-12.795,27.648-15.002
        			c9.243-1.849,15.237-10.84,13.388-20.082s-10.84-15.237-20.082-13.388c-0.113,0.023-0.225,0.046-0.337,0.071
        			c-16.954,3.579-32.502,12.011-44.749,24.269L25.725,282.703c-34.676,35.211-34.242,91.865,0.969,126.541
        			c34.827,34.297,90.731,34.301,125.563,0.008l115.575-115.593C290.7,270.756,299.442,237.303,290.702,206.142z" />
        </g>
    </symbol>
    <symbol id="about-mission" viewBox="0 0 512 512">
        <g><path d="m306 172.302v-20.302h70c3.688 0 7.076-2.03 8.816-5.281 1.74-3.252 1.55-7.197-.496-10.266l-16.301-24.453 16.302-24.453c2.046-3.068 2.236-7.014.496-10.266-1.741-3.251-5.129-5.281-8.817-5.281h-70v-10c0-5.523-4.478-10-10-10s-10 4.477-10 10v110.302c-89.101 5.195-160 79.317-160 169.698 0 93.738 76.262 170 170 170s170-76.262 170-170c0-90.381-70.899-164.503-160-169.698zm51.315-80.302-9.635 14.453c-2.239 3.359-2.239 7.735 0 11.094l9.635 14.453h-51.315v-40zm81.16 296.921c-6.405-4.363-14.139-6.921-22.475-6.921-22.091 0-40 17.909-40 40 0 13.981 7.175 26.284 18.043 33.434-26.311 22.772-60.596 36.566-98.043 36.566-82.71 0-150-67.29-150-150 0-79.349 61.936-144.494 140-149.659v20.127c-12.787 1.249-25.11 4.899-35.167 10.97-4.729 2.854-6.248 9-3.395 13.729 2.851 4.727 8.997 6.249 13.728 3.394 18.883-11.396 50.783-11.396 69.666 0 1.616.976 3.397 1.44 5.157 1.44 3.388 0 6.693-1.722 8.571-4.834 2.854-4.729 1.334-10.875-3.395-13.729-10.057-6.07-22.38-9.721-35.167-10.97v-20.127c78.065 5.164 140 70.309 140 149.659.002 16.381-2.647 32.153-7.523 46.921z"/><circle cx="246" cy="292" r="30"/><circle cx="196" cy="342" r="20"/><circle cx="396" cy="302" r="10"/><circle cx="276" cy="362" r="10"/><path d="m203.071 37.071c2.859-2.86 3.716-7.161 2.168-10.898-1.548-3.736-5.194-6.173-9.239-6.173h-75.857l-17.072-17.071c-.237-.237-.484-.46-.741-.67-.202-.166-.413-.315-.625-.463-.055-.038-.107-.082-.163-.12-.256-.171-.519-.326-.786-.47-.017-.009-.033-.021-.05-.03-.271-.145-.549-.274-.83-.392-.018-.008-.035-.017-.054-.025-.268-.111-.541-.206-.816-.292-.035-.011-.07-.026-.106-.037-.258-.078-.519-.14-.781-.196-.058-.013-.114-.03-.171-.042-.257-.051-.517-.085-.777-.116-.064-.008-.128-.022-.192-.028-.327-.032-.656-.048-.984-.048h-59.995c-5.522 0-10 4.477-10 10v59.995c0 .328.016.657.048.984.006.063.02.125.027.188.031.262.065.523.117.782.011.054.027.106.039.159.057.266.12.531.199.792.01.034.025.067.036.102.087.277.183.552.294.821.007.017.016.033.023.05.118.283.248.561.394.834.007.013.016.026.023.04.146.271.303.537.477.797.033.05.073.096.107.146.151.217.305.434.475.641.21.257.433.504.67.741l17.071 17.071v75.857c0 4.044 2.437 7.691 6.173 9.239 1.237.513 2.537.762 3.825.762 2.603 0 5.16-1.017 7.073-2.929zm-31.214 2.929-15.857 15.857-15.857-15.857zm-75.857 75.858-45.858-45.858 45.858-45.857 45.857 45.857zm-24.143-95.858-25.857 25.857v-25.857zm-5.857 94.143 15.858 15.857-15.858 15.858z"/><path d="m153.929 172.071c1.953 1.952 4.511 2.929 7.071 2.929s5.118-.977 7.071-2.929c3.905-3.905 3.905-10.237 0-14.143l-25-25c-3.906-3.904-10.236-3.904-14.143 0-3.905 3.905-3.905 10.237 0 14.143z"/><path d="m158.929 102.929c-3.905 3.905-3.905 10.237 0 14.143l45 45c1.953 1.952 4.511 2.928 7.071 2.928s5.118-.976 7.071-2.929c3.905-3.905 3.905-10.237 0-14.143l-45-45c-3.906-3.905-10.236-3.905-14.142.001z"/><path d="m90 306c-16.542 0-30-13.458-30-30 0-5.523-4.478-10-10-10s-10 4.477-10 10c0 16.542-13.458 30-30 30-5.523 0-10 4.477-10 10s4.477 10 10 10c16.542 0 30 13.458 30 30 0 5.523 4.478 10 10 10s10-4.477 10-10c0-16.542 13.458-30 30-30 5.522 0 10-4.477 10-10s-4.478-10-10-10z"/><path d="m502 166c-16.542 0-30-13.458-30-30 0-5.523-4.478-10-10-10s-10 4.477-10 10c0 16.542-13.458 30-30 30-5.522 0-10 4.477-10 10s4.478 10 10 10c16.542 0 30 13.458 30 30 0 5.523 4.478 10 10 10s10-4.477 10-10c0-16.542 13.458-30 30-30 5.522 0 10-4.477 10-10s-4.478-10-10-10z"/><circle cx="316" cy="442" r="20"/></g>
    </symbol>
    <symbol id="about-purpose" viewBox="0 0 496 496">
        <g>
            <path d="m416 248h-16c0 13.230469-10.769531 24-24 24s-24-10.769531-24-24h-16c0 22.054688 17.945312 40 40 40s40-17.945312 40-40zm0 0"/><path d="m368 228.6875-18.34375-18.34375-11.3125 11.3125 37.65625 37.65625 37.65625-37.65625-11.3125-11.3125-18.34375 18.34375v-127.742188l32-16v-84.945312l-40 30-40-30v84.945312l32 16zm32-153.632812-16 8v-39.054688l16-12zm-48 0v-43.054688l16 12v39.054688zm0 0"/><path d="m354.71875 179.199219-4.71875-15.289063c-37.089844 11.457032-62 45.25-62 84.089844 0 48.519531 39.480469 88 88 88s88-39.480469 88-88c0-38.839844-24.910156-72.632812-62-84.089844l-4.71875 15.289063c30.335938 9.375 50.71875 37.015625 50.71875 68.800781 0 39.695312-32.304688 72-72 72s-72-32.304688-72-72c0-31.785156 20.382812-59.425781 50.71875-68.800781zm0 0"/><path d="m401.433594 130.753906-3.386719 15.636719c47.488281 10.265625 81.953125 52.992187 81.953125 101.609375 0 57.34375-46.65625 104-104 104s-104-46.65625-104-104c0-48.617188 34.464844-91.34375 81.953125-101.609375l-3.386719-15.636719c-52.167968 11.269532-90.636718 56.527344-94.214844 109.246094h-48.351562v-192h-80v-48h-128v112h128v-48h64v176h-64v-48h-128v112h128v-48h64v176h-64v-48h-128v112h128v-48h80v-192h48.40625c4.144531 62.441406 56.128906 112 119.59375 112 66.167969 0 120-53.832031 120-120 0-56.097656-39.777344-105.40625-94.566406-117.246094zm-289.433594-34.753906h-96v-80h96zm0 192h-96v-80h96zm0 192h-96v-80h96zm0 0"/><path d="m32 224h64v16h-64zm0 0"/><path d="m72 256h16v16h-16zm0 0"/><path d="m40 256h16v16h-16zm0 0"/><path d="m32 32h64v16h-64zm0 0"/><path d="m72 64h16v16h-16zm0 0"/><path d="m40 64h16v16h-16zm0 0"/><path d="m32 416h64v16h-64zm0 0"/><path d="m72 448h16v16h-16zm0 0"/><path d="m40 448h16v16h-16zm0 0"/>
        </g>
    </symbol>
    <symbol id="why-we-here" viewBox="0 0 512.004 512.004">
        <g>
            <path d="m511.815 489.154c-1.056-9.652-7.294-57.512-30.592-97.696-9.814-16.781-22.916-31.723-38.94-44.41-37.442-30.644-85.685-31.976-90.678-32.029-5.781-.364-12.131-.54-19.956-.552l-2.287-.002v-39.9c12.482-12.221 21.792-27.426 26.942-44.043h4.772c10.469 0 20.302-4.075 27.674-11.462 7.401-7.386 11.477-17.219 11.477-27.688 0-.054-.001-.11-.002-.169.001-.06.002-.116.002-.171 0-5.631-1.189-11.073-3.428-16.052-.521-88.168-29.744-111.798-41.233-117.679-7.219-11.153-35.001-46.754-95.465-46.754-1.171 0-7.134 0-8.241.01-36.182.15-69.572 14.538-94.021 40.511-23.994 25.491-37.208 59.691-37.208 96.3v19.254c-5.533 6.898-8.545 15.414-8.545 24.41v.34c0 10.483 4.078 20.319 11.463 27.675 7.386 7.4 17.219 11.476 27.688 11.476h4.444c5.159 16.628 14.474 31.836 26.96 44.057v39.801c-4.799-.004-9.598.257-14.391.499-3.684.026-27.926.53-54.421 8.987-5.261 1.68-8.165 7.306-6.485 12.567 1.679 5.261 7.308 8.169 12.567 6.485 24.283-7.751 46.208-8.034 48.63-8.041 4.924 0 9.845-.502 14.774-.498 3.742 27.332 23.314 50.749 49.384 59.583 7.479 2.534 15.405 3.825 23.301 3.825 27.589 0 53.988-16.336 65.941-41.303 3.33-6.956 5.667-14.369 6.726-22.019l2.958.002c7.52.011 13.552.18 18.982.529.202.013.423.02.626.021.45.002 45.389.465 78.437 27.554.046.037.091.074.137.109 14.094 11.148 25.584 24.229 34.132 38.843 16.691 28.79 23.897 63.039 26.621 79.935h-45.002v-20.11c0-5.522-4.478-10-10-10s-10 4.478-10 10v20.11h-332.663v-20.11c0-5.522-4.478-10-10-10s-10 4.478-10 10v20.11h-51.453c2.723-16.895 9.926-51.138 26.604-79.904 2.229-3.814 4.688-7.579 7.309-11.188 3.243-4.471 2.25-10.724-2.22-13.967-4.47-3.244-10.723-2.251-13.967 2.219-3.006 4.142-5.828 8.463-8.407 12.875-23.279 40.148-29.517 88.008-30.573 97.66-.132.938-.229 1.819-.171 2.829.295 5.262 4.671 9.474 10.004 9.474h491.98c5.344 0 9.708-4.229 9.986-9.506.056-.996-.042-1.869-.172-2.797zm-131.59-297.54c-.062 5.028-2.046 9.74-5.615 13.303-3.608 3.614-8.414 5.604-13.533 5.604-.236 0-.471 0-.707 0 .375-3.717 1.368-38.625.994-38.631 5.011.073 9.707 2.05 13.26 5.609 3.819 3.814 5.41 8.753 5.601 14.115zm-4.122-36.766c-4.64-1.926-9.656-2.947-14.831-2.972.093-10.463-6.522-19.883-16.896-22.377-3.535-.85-7.261-.66-10.857-1.087-5.735-.682-11.582-2.06-16.603-5.015-1.344-.798-2.517-1.654-3.542-2.547 12.442-5.034 30.106-16.06 40.362-39.676 7.93 8.864 19.422 29.176 22.367 73.674zm-235.471-7.481c0-31.493 11.283-60.825 31.771-82.592 20.651-21.938 48.899-34.092 79.585-34.219 1.128-.01 6.965-.005 8.113-.01 48.538 0 71.227 26.733 77.711 36.147-10.159 31.666-36.626 37.559-40.697 38.282-18.039.097-35.905 3.251-53.122 9.395-17.243 6.168-33.321 15.147-47.778 26.681-.564.449-1.14.884-1.726 1.305-8.801 6.319-20.126 9.52-33.737 9.52-6.737 0-13.557-.391-20.12 1.445zm-2.948 57.529c-3.609-3.596-5.598-8.398-5.598-13.525v-.34c0-5.126 1.988-9.929 5.617-13.545 3.452-3.452 8.164-5.46 13.04-5.585.02 12.851-.422 25.818.913 38.62-.14 0-.28 0-.419 0-5.119 0-9.925-1.99-13.553-5.625zm35.432 13.543c-.242-1.136-.458-2.273-.656-3.417-.789-4.739-1.141-9.624-1.486-14.797-.407-9.588-.233-19.239-.229-28.835 13.705-1.378 27.09-6.066 37.934-14.695 12.74-10.164 26.889-18.067 42.045-23.489 13.235-4.723 26.901-7.435 40.716-8.085 6.401 11.839 18.557 19.573 35.312 22.501 2.065.385 4.169.632 6.258.833 1.683.162 1.35.191 8.189.73.038.003.02 29.804-.024 38.78-.165 10.189-.005 20.383-2.285 30.384-3.893 17.195-13.234 32.917-26.46 44.685-47.286 42.048-125.285 17.236-139.314-44.595zm29.525 106.367v-.42-34.447c17.481 10.321 37.801 15.353 58.076 14.436 17.108-.749 33.901-5.732 48.645-14.449v34.531.289c-.176 29.247-24.113 53.041-53.36 53.041s-53.185-23.794-53.361-52.981z"/><path d="m233.458 194.145c5.522 0 10-4.478 10-10 0-3.997 1.61-7.701 4.535-10.431 2.921-2.728 6.741-4.086 10.762-3.798 7.037.485 12.71 6.158 13.195 13.195.44 6.383-3.438 12.334-9.432 14.474-8.851 3.158-14.797 11.61-14.797 21.033v6.322c0 5.522 4.478 10 10 10s10-4.478 10-10v-6.322c0-.99.61-1.873 1.52-2.197 14.396-5.138 23.716-19.401 22.662-34.686-1.169-16.944-14.828-30.604-31.772-31.772-9.618-.671-18.769 2.579-25.785 9.13-6.919 6.459-10.888 15.59-10.888 25.052 0 5.523 4.477 10 10 10z"/><path d="m266.971 252.731c-1.546-3.707-5.258-6.164-9.269-6.166-4.442-.002-8.406 3.065-9.597 7.329-2.441 8.739 7.645 15.978 15.176 10.978 3.935-2.612 5.476-7.783 3.69-12.141z"/><path d="m67.521 358.132c1.668 4.001 5.876 6.574 10.209 6.129 4.33-.445 7.966-3.727 8.821-7.999 1.742-8.704-8.328-15.172-15.552-10.129-3.804 2.655-5.227 7.728-3.478 11.999z"/>
        </g>
    </symbol>
    <symbol id="">

    </symbol>
    <symbol id="">

    </symbol>
    <symbol id="">

    </symbol>
    <symbol id="">

    </symbol>
    <symbol id="">

    </symbol>
    <symbol id="">

    </symbol>
    <symbol id="">

    </symbol>
    <symbol id="">

    </symbol>
    <symbol id="">

    </symbol>
    <symbol id="">

    </symbol>
    <symbol id="">

    </symbol>
    <symbol id="">

    </symbol>
    <symbol id="">

    </symbol>
    <symbol id="">

    </symbol>
    <symbol id="">

    </symbol>
    <symbol id="">

    </symbol>
    <symbol id="">

    </symbol>
    <symbol id="">

    </symbol>
    <symbol id="">

    </symbol>
    <symbol id="">

    </symbol>
    <symbol id="">

    </symbol>
    <symbol id="">

    </symbol>

</svg>