<svg width="24" height="24" viewBox="0 0 24 24" fill="none" xmlns="http://www.w3.org/2000/svg">
<path fill-rule="evenodd" clip-rule="evenodd" d="M4.97021 12.2678C4.97023 12.2678 4.9702 12.2678 4.97021 12.2678L12 19.3212L19.0298 12.2678C19.0298 12.2678 19.0298 12.2678 19.0298 12.2678C20.3162 10.977 20.802 9.63328 20.8 8.44841C20.7981 7.25246 20.2999 6.14593 19.4906 5.33386C18.6813 4.52176 17.5758 4.01937 16.3783 4.01737C15.1916 4.01539 13.8498 4.50526 12.5635 5.79579L12 6.36117L11.4365 5.79579C10.1502 4.50526 8.80842 4.01539 7.62176 4.01737C6.42425 4.01937 5.31875 4.52176 4.50941 5.33386C3.70012 6.14593 3.20189 7.25246 3.19996 8.44841C3.19805 9.63328 3.68382 10.977 4.97021 12.2678ZM3.84305 13.4157C2.29114 11.8584 1.59732 10.1135 1.60001 8.44577C1.60269 6.78907 2.29322 5.27877 3.38227 4.18599C4.47128 3.09325 5.97371 2.40276 7.61911 2.40001C9.07755 2.39757 10.5979 2.93501 12 4.12659C13.4021 2.93501 14.9225 2.39757 16.3809 2.40001C18.0263 2.40276 19.5287 3.09325 20.6177 4.18599C21.7068 5.27877 22.3973 6.78907 22.4 8.44577C22.4027 10.1135 21.7089 11.8584 20.157 13.4157L12 21.6L3.84305 13.4157Z" fill="#F47216"/>
</svg>
