<svg xmlns="http://www.w3.org/2000/svg" width="20" height="20" viewBox="0 0 20 20" fill="none">
<path d="M6.25 18.125C6.94036 18.125 7.5 17.5654 7.5 16.875C7.5 16.1846 6.94036 15.625 6.25 15.625C5.55964 15.625 5 16.1846 5 16.875C5 17.5654 5.55964 18.125 6.25 18.125Z" fill="white"/>
<path d="M14.375 18.125C15.0654 18.125 15.625 17.5654 15.625 16.875C15.625 16.1846 15.0654 15.625 14.375 15.625C13.6846 15.625 13.125 16.1846 13.125 16.875C13.125 17.5654 13.6846 18.125 14.375 18.125Z" fill="white"/>
<path fill-rule="evenodd" clip-rule="evenodd" d="M0 2.5C0 2.15482 0.279822 1.875 0.625 1.875H1.93928C2.21091 1.875 2.47516 1.96349 2.69202 2.12706C2.90888 2.29064 3.06656 2.52041 3.14118 2.7816L3.77501 5H17.3214C17.5176 5 17.7023 5.09206 17.8204 5.24863C17.9385 5.4052 17.9763 5.60813 17.9224 5.7967L15.86 13.0151C15.748 13.4069 15.5115 13.7515 15.1862 13.9969C14.8609 14.2423 14.4646 14.375 14.0571 14.375H6.56788C6.16042 14.375 5.76405 14.2423 5.43876 13.9969C5.11347 13.7515 4.87696 13.4069 4.76502 13.0151L2.70655 5.81045C2.70379 5.80157 2.70123 5.7926 2.69886 5.78354L1.93928 3.125H0.625C0.279822 3.125 0 2.84518 0 2.5ZM4.13215 6.25L5.96692 12.6717C6.00424 12.8023 6.08307 12.9172 6.1915 12.999C6.29994 13.0808 6.43206 13.125 6.56788 13.125H14.0571C14.1929 13.125 14.3251 13.0808 14.4335 12.999C14.5419 12.9172 14.6208 12.8023 14.6581 12.6717L16.4928 6.25H4.13215Z" fill="white"/>
</svg>