<svg width="16" height="16" viewBox="0 0 16 16" fill="none" xmlns="http://www.w3.org/2000/svg">
    <defs>
        <linearGradient id="half">
            <stop offset="0%" stop-color="#F2994A" />
            <stop offset="50%" stop-color="#F2994A" />
            <stop offset="50%" stop-color="#ADADAD" />
            <stop offset="100%" stop-color="#ADADAD" />
        </linearGradient>            
    </defs>
    <path 
        d="M7.53914 1.23615C7.69401 0.734993 8.40339 0.734992 8.55826 1.23615L9.82109 5.32277C9.89015 5.54624 10.0968 5.69864 10.3306 5.69864L14.472 5.69864C14.9822 5.69864 15.2012 6.3461 14.7958 6.65579L11.4001 9.24989C11.2224 9.38558 11.1483 9.61762 11.2143 9.83117L12.5003 13.993C12.6536 14.4891 12.0796 14.8895 11.667 14.5742L8.37246 12.0574C8.18132 11.9114 7.91608 11.9114 7.72493 12.0574L4.4304 14.5742C4.01776 14.8895 3.44376 14.4891 3.59707 13.993L4.88313 9.83117C4.94912 9.61762 4.87496 9.38558 4.69734 9.24989L1.30162 6.65579C0.896229 6.3461 1.11524 5.69864 1.62539 5.69864L5.76674 5.69864C6.00064 5.69864 6.20725 5.54624 6.2763 5.32277L7.53914 1.23615Z"
        fill="url(#half)" />
</svg>