<svg width="22" height="20" viewBox="0 0 22 20" fill="none" xmlns="http://www.w3.org/2000/svg">
<path fill-rule="evenodd" clip-rule="evenodd" d="M3.97021 10.2678C3.97023 10.2678 3.9702 10.2678 3.97021 10.2678L11 17.3212L18.0298 10.2678C18.0298 10.2678 18.0298 10.2678 18.0298 10.2678C19.3162 8.97695 19.802 7.63328 19.8 6.44841C19.7981 5.25246 19.2999 4.14593 18.4906 3.33386C17.6813 2.52176 16.5758 2.01937 15.3783 2.01737C14.1916 2.01539 12.8498 2.50526 11.5635 3.79579L11 4.36117L10.4365 3.79579C9.15016 2.50526 7.80842 2.01539 6.62176 2.01737C5.42425 2.01937 4.31875 2.52176 3.50942 3.33386C2.70012 4.14593 2.20189 5.25246 2.19996 6.44841C2.19805 7.63328 2.68382 8.97695 3.97021 10.2678ZM2.84305 11.4157C1.29114 9.85838 0.597325 8.11354 0.600014 6.44577C0.602685 4.78907 1.29322 3.27877 2.38227 2.18599C3.47128 1.09325 4.97371 0.40276 6.61911 0.40001C8.07755 0.397572 9.59795 0.935014 11 2.12659C12.4021 0.935014 13.9225 0.397572 15.3809 0.40001C17.0263 0.40276 18.5287 1.09325 19.6177 2.18599C20.7068 3.27877 21.3973 4.78907 21.4 6.44577C21.4027 8.11354 20.7089 9.85838 19.157 11.4157L11 19.6L2.84305 11.4157Z" fill="#F47216"/>
</svg>
