<?xml version="1.0" encoding="UTF-8"?> <svg xmlns="http://www.w3.org/2000/svg" viewBox="0 0 57.74 61.69"> <defs> <style>.cls-1{fill:#fff;}</style> </defs> <title>Ресурс 73</title> <g id="Слой_2" data-name="Слой 2"> <g id="Слой_1-2" data-name="Слой 1"> <path class="cls-1" d="M24.86,18.21a1.1,1.1,0,0,0,1.56,0l2.45-2.45,2.45,2.45a1.1,1.1,0,0,0,1.56-1.56L30.42,14.2l2.45-2.45a1.1,1.1,0,1,0-1.56-1.56l-2.45,2.45-2.45-2.45a1.1,1.1,0,0,0-1.56,1.56l2.45,2.45-2.45,2.45A1.1,1.1,0,0,0,24.86,18.21Z"></path> <path class="cls-1" d="M51.75,27.28l5.86-11.13a1.1,1.1,0,0,0-.79-1.6l-2.65-.46A16.16,16.16,0,0,1,43.8,7.62,18.25,18.25,0,0,0,28.87,0h0A18.25,18.25,0,0,0,13.93,7.62,16.16,16.16,0,0,1,3.57,14.09l-2.65.46a1.1,1.1,0,0,0-.79,1.6L6,27.28a7,7,0,0,0,1.85,2.24,23,23,0,1,0,44,9.21,22.76,22.76,0,0,0-1.93-9.21A7,7,0,0,0,51.75,27.28Zm-47.81-11A18.35,18.35,0,0,0,15.72,8.91a16.24,16.24,0,0,1,26.3,0,18.35,18.35,0,0,0,11.77,7.35l1.17.2-1.12,2.12-1.26-.25a20.35,20.35,0,0,1-12.36-7.69l-.15-.2a13.73,13.73,0,0,0-22.36,0l-.09.12-.07.09A20.35,20.35,0,0,1,5.19,18.33l-1.29.26L2.78,16.46Zm1,4.36.65-.13A22.55,22.55,0,0,0,19.31,12l.09-.12.08-.1a11.53,11.53,0,0,1,18.82,0l.16.21a22.54,22.54,0,0,0,13.69,8.53l.62.12-3,5.64a4.71,4.71,0,0,1-6,2.17,38.86,38.86,0,0,0-29.85,0,4.71,4.71,0,0,1-6-2.17ZM43.41,33.56A14.54,14.54,0,0,1,41.36,41l-1.69-4.1a5.74,5.74,0,0,0,2.42-6.78l.86.34.14.05A14.65,14.65,0,0,1,43.41,33.56ZM14.65,30.51l.13-.05a36.48,36.48,0,0,1,14.08-2.81,36.9,36.9,0,0,1,3.83.2,5.74,5.74,0,0,0,4.9,9.82l2.24,5.43a14.5,14.5,0,0,1-3.68,3,3.54,3.54,0,0,1-3,.25,12.35,12.35,0,0,0-8.5,0,3.55,3.55,0,0,1-3-.25,14.55,14.55,0,0,1-6.92-15.63Zm22,5A3.54,3.54,0,1,1,40.21,32,3.55,3.55,0,0,1,36.66,35.54Zm13,3.19a20.75,20.75,0,0,1-41.51,0,20.57,20.57,0,0,1,1.66-8.14,6.88,6.88,0,0,0,2.55.4A16.75,16.75,0,0,0,20.46,48a5.78,5.78,0,0,0,2.9.78,5.65,5.65,0,0,0,2.05-.38,10.16,10.16,0,0,1,6.9,0,5.76,5.76,0,0,0,5-.39A16.75,16.75,0,0,0,45.41,31h.22A6.88,6.88,0,0,0,48,30.59,20.57,20.57,0,0,1,49.62,38.73Z"></path> <path class="cls-1" d="M22.11,40.13A3.07,3.07,0,0,0,22,42.65l0,0a3.08,3.08,0,0,0,3.63,1.84,12.94,12.94,0,0,1,6.46,0,3.08,3.08,0,0,0,3.63-1.84l0,0a3.08,3.08,0,0,0-2.1-4.12,19.15,19.15,0,0,0-9.55,0A3.1,3.1,0,0,0,22.11,40.13Zm2.54.54a16.94,16.94,0,0,1,8.45,0,.88.88,0,0,1,.57.46.86.86,0,0,1,0,.71l0,0a.88.88,0,0,1-1,.52,15.15,15.15,0,0,0-7.56,0,.88.88,0,0,1-1-.52l0,0a.86.86,0,0,1,0-.72A.88.88,0,0,1,24.64,40.67Z"></path> <path class="cls-1" d="M21.29,31.5l.73.42-.21.15a1.76,1.76,0,1,0,2.86,1.69,1.71,1.71,0,0,0,0-.38l.21,0a1.1,1.1,0,0,0,.55-2.06l-3.08-1.76a1.1,1.1,0,0,0-1.09,1.91Z"></path> </g> </g> </svg> 