<?xml version="1.0" encoding="UTF-8"?> <svg xmlns="http://www.w3.org/2000/svg" viewBox="0 0 53.67 53.67"> <defs> <style>.cls-1{fill:#fff;}</style> </defs> <title>Ресурс 74</title> <g id="Слой_2" data-name="Слой 2"> <g id="Слой_1-2" data-name="Слой 1"> <path class="cls-1" d="M26.83,53.67A26.83,26.83,0,1,1,53.67,26.83,26.87,26.87,0,0,1,26.83,53.67ZM26.83,2A24.85,24.85,0,1,0,51.68,26.83,24.88,24.88,0,0,0,26.83,2Z"></path> <path class="cls-1" d="M26.83,31A4.13,4.13,0,1,1,31,26.83,4.14,4.14,0,0,1,26.83,31Zm0-6.28A2.15,2.15,0,1,0,29,26.83,2.15,2.15,0,0,0,26.83,24.69Z"></path> <path class="cls-1" d="M24.6,25.56a1,1,0,0,1-.76-.36L16.15,16a1,1,0,0,1,1.52-1.27l7.68,9.18a1,1,0,0,1-.76,1.63Z"></path> <path class="cls-1" d="M27,7.47a1,1,0,0,1-1-1V5a1,1,0,0,1,2,0V6.48A1,1,0,0,1,27,7.47Z"></path> <path class="cls-1" d="M27,49.67a1,1,0,0,1-1-1V47.19a1,1,0,0,1,2,0v1.49A1,1,0,0,1,27,49.67Z"></path> <path class="cls-1" d="M16.8,10.2a1,1,0,0,1-.86-.5l-.75-1.29a1,1,0,1,1,1.72-1l.75,1.29a1,1,0,0,1-.86,1.49Z"></path> <path class="cls-1" d="M37.9,46.75a1,1,0,0,1-.86-.5L36.3,45A1,1,0,1,1,38,44l.75,1.29a1,1,0,0,1-.86,1.49Z"></path> <path class="cls-1" d="M9.35,17.65a1,1,0,0,1-.5-.13l-1.29-.75a1,1,0,0,1,1-1.72l1.29.75a1,1,0,0,1-.5,1.85Z"></path> <path class="cls-1" d="M45.9,38.75a1,1,0,0,1-.5-.13l-1.29-.75a1,1,0,1,1,1-1.72l1.29.75a1,1,0,0,1-.5,1.85Z"></path> <path class="cls-1" d="M6.62,27.83H5.13a1,1,0,0,1,0-2H6.62a1,1,0,1,1,0,2Z"></path> <path class="cls-1" d="M48.83,27.83H47.33a1,1,0,0,1,0-2h1.49a1,1,0,0,1,0,2Z"></path> <path class="cls-1" d="M8.06,38.75a1,1,0,0,1-.5-1.85l1.29-.75a1,1,0,0,1,1,1.72l-1.29.75A1,1,0,0,1,8.06,38.75Z"></path> <path class="cls-1" d="M44.61,17.65a1,1,0,0,1-.5-1.85l1.29-.75a1,1,0,1,1,1,1.72l-1.29.75A1,1,0,0,1,44.61,17.65Z"></path> <path class="cls-1" d="M16.05,46.75a1,1,0,0,1-.86-1.49L15.94,44a1,1,0,1,1,1.72,1l-.75,1.29A1,1,0,0,1,16.05,46.75Z"></path> <path class="cls-1" d="M37.15,10.2a1,1,0,0,1-.86-1.49L37,7.42a1,1,0,1,1,1.72,1L38,9.7A1,1,0,0,1,37.15,10.2Z"></path> <path class="cls-1" d="M29.08,25.52a1,1,0,0,1-.7-1.69l5.33-5.33a1,1,0,0,1,1.4,1.4l-5.33,5.33A1,1,0,0,1,29.08,25.52Z"></path> </g> </g> </svg> 