<?xml version="1.0" encoding="UTF-8"?> <svg xmlns="http://www.w3.org/2000/svg" viewBox="0 0 44.53 60.02"> <defs> <style>.cls-1{fill:#fff;}</style> </defs> <title>Ресурс 72 1</title> <g id="Слой_2" data-name="Слой 2"> <g id="Слой_1-2" data-name="Слой 1"> <path class="cls-1" d="M15.61,51.39a1,1,0,0,1-.7-.29l-4.35-4.35a1,1,0,0,1,0-1.4l4.57-4.57a1,1,0,0,1,1.4,1.4L12.66,46l3.65,3.65a1,1,0,0,1-.7,1.69Z"></path> <path class="cls-1" d="M28.7,51.39A1,1,0,0,1,28,49.7l3.87-3.87-3.65-3.65a1,1,0,0,1,1.4-1.4L34,45.13a1,1,0,0,1,0,1.4L29.4,51.1A1,1,0,0,1,28.7,51.39Z"></path> <path class="cls-1" d="M19.5,53.17a1,1,0,0,1-.91-1.39l5.53-12.56a1,1,0,0,1,1.82.8L20.41,52.58A1,1,0,0,1,19.5,53.17Z"></path> <path class="cls-1" d="M16.85,31a5,5,0,1,1,5-5A5,5,0,0,1,16.85,31Zm0-7.92a3,3,0,1,0,3,3A3,3,0,0,0,16.85,23.1Z"></path> <path class="cls-1" d="M9.75,29.94a6.11,6.11,0,0,1-6.22-6c0-3,1.54-5.19,4-5.72A1,1,0,1,1,8,20.19C6.41,20.52,5.52,21.9,5.52,24a4.12,4.12,0,0,0,4.23,4,1,1,0,0,1,0,2Z"></path> <path class="cls-1" d="M35.14,30.62a1,1,0,0,1,0-2c1.7,0,3.75-2.33,4.16-4.71.43-2.57-.53-4.29-1.4-4.54a1,1,0,0,1,.56-1.9c1.82.54,3.42,3.09,2.79,6.77C40.68,27.64,37.82,30.62,35.14,30.62Z"></path> <path class="cls-1" d="M28.65,31a5,5,0,1,1,5-5A5,5,0,0,1,28.65,31Zm0-7.92a3,3,0,1,0,3,3A3,3,0,0,0,28.65,23.1Z"></path> <path class="cls-1" d="M35.14,22.84c-1.42,0-2.16-1.38-2.87-2.72-.86-1.6-1.55-2.73-2.67-2.73H19.15c-2.68,0-4.52-1.94-5.62-3.1l-.21-.22c-.17.62-.37,1.49-.52,2.19C12,19.78,11.44,22,10.3,22.63a1.47,1.47,0,0,1-1.18.14C6.39,21.92,5.35,13,5.35,11.56A8,8,0,0,1,7.93,6.27,1,1,0,0,1,9.25,7.75a6.06,6.06,0,0,0-1.91,3.81c0,2.59,1.19,7.82,2.15,9.09a27.22,27.22,0,0,0,1.38-4.83c.66-2.93.88-3.79,1.64-4.11.94-.4,1.65.35,2.47,1.21,1,1,2.36,2.48,4.18,2.48H29.6c2.39,0,3.57,2.18,4.42,3.78.32.6.86,1.6,1.13,1.67.77,0,2.84-4.13,2.84-8.47C38,8.91,31,2,21.86,2,16.13,2,15.16,3.08,15,3.29a.22.22,0,0,0,0,.22,1,1,0,0,1,.1.79,1,1,0,0,1-.55.6L11.83,6.14A1,1,0,0,1,11,4.34l2-.91a2.19,2.19,0,0,1,.28-1.08C14.15.77,17,0,21.86,0,31.86,0,40,7.49,40,12.38,40,16.07,38.14,22.84,35.14,22.84Z"></path> <path class="cls-1" d="M11.16,34.21a1,1,0,0,1-.95-.69C9,29.71,8.77,22.95,8.76,22.66a1,1,0,0,1,2-.07c0,.07.24,6.77,1.37,10.33a1,1,0,0,1-.95,1.29Z"></path> <path class="cls-1" d="M34.45,34.56l-.18,0a1,1,0,0,1-.79-1.16c.85-4.51,1.37-11.54,1.38-11.61a1,1,0,0,1,1.06-.92,1,1,0,0,1,.92,1.06c0,.29-.54,7.21-1.41,11.83A1,1,0,0,1,34.45,34.56Z"></path> <path class="cls-1" d="M37.88,60H6.65a3.37,3.37,0,0,1-3.34-2.84L0,37a3.38,3.38,0,0,1,3.34-3.92H41.15A3.38,3.38,0,0,1,44.49,37L41.22,57.18A3.37,3.37,0,0,1,37.88,60ZM3.38,35A1.4,1.4,0,0,0,2,36.67L5.27,56.86A1.39,1.39,0,0,0,6.65,58H37.88a1.39,1.39,0,0,0,1.38-1.17l3.27-20.19A1.4,1.4,0,0,0,41.15,35Z"></path> <path class="cls-1" d="M24.69,27.05H20.81a1,1,0,0,1,0-2h3.88a1,1,0,0,1,0,2Z"></path> </g> </g> </svg> 