<?xml version="1.0" encoding="UTF-8"?> <svg xmlns="http://www.w3.org/2000/svg" viewBox="0 0 65.88 63.39"> <defs> <style>.cls-1{fill:#4b21ff;}</style> </defs> <title>Ресурс 62</title> <g id="Слой_2" data-name="Слой 2"> <g id="Слой_1-2" data-name="Слой 1"> <path class="cls-1" d="M37.56,43.87V38.1L39,36.67C55.16,20.5,53.53,11.25,53.45,10.86a1.17,1.17,0,0,0-.92-.92c-.39-.08-9.64-1.71-25.81,14.47l-1.43,1.43H19.53A7.37,7.37,0,0,0,14.28,28L2.85,39.44a1.17,1.17,0,0,0,.83,2H15.57l2.37,2.37-5.36,5.36a1.17,1.17,0,1,0,1.65,1.65l5.36-5.36L22,47.83V59.72a1.17,1.17,0,0,0,2,.83L35.38,49.11A7.37,7.37,0,0,0,37.56,43.87ZM51.19,12.21a14.92,14.92,0,0,1-.83,4.13L47.06,13A15,15,0,0,1,51.19,12.21ZM31.91,31.48a1.17,1.17,0,0,0-1.65,0L19.59,42.15l-2.71-2.71h0a1.33,1.33,0,0,1,0-1.88l2.65-2.65a1.17,1.17,0,1,0-1.65-1.65L15.23,35.9a3.67,3.67,0,0,0-1,3.19H6.5l9.43-9.43a5,5,0,0,1,3.59-1.49H23l-1.54,1.54a1.17,1.17,0,1,0,1.65,1.65l5.3-5.3A73.64,73.64,0,0,1,38,17.86l3.79,3.79A1.17,1.17,0,0,0,43.41,20l-3.46-3.46A37.07,37.07,0,0,1,44.67,14l4.76,4.76a37.17,37.17,0,0,1-2.58,4.73,1.17,1.17,0,0,0-1.57,1.73l.25.25A73.64,73.64,0,0,1,37.33,35L25.84,46.51a1.33,1.33,0,0,1-1.88,0h0L21.24,43.8,31.91,33.14A1.17,1.17,0,0,0,31.91,31.48ZM24.3,56.89v-7.7a3.67,3.67,0,0,0,3.19-1l7.73-7.73v3.43a5,5,0,0,1-1.49,3.59Z"></path> <path class="cls-1" d="M19.53,52.7h0A1.07,1.07,0,0,0,18,52.53C18,52.61,11.22,59.26,2.38,61c1.75-8.84,8.41-15.6,8.48-15.67a1.07,1.07,0,0,0-.17-1.49,1.07,1.07,0,0,0-1.49-.17C8.88,44,1.25,51.75,0,62A1.26,1.26,0,0,0,.4,63a1.26,1.26,0,0,0,1,.39c10.23-1.24,18-8.87,18.29-9.2A1.07,1.07,0,0,0,19.53,52.7Z"></path> <path class="cls-1" d="M39.31,28.77a3.67,3.67,0,1,0-5.19,0A3.67,3.67,0,0,0,39.31,28.77Zm-3.54-1.65a1.33,1.33,0,1,1,1.88,0A1.33,1.33,0,0,1,35.78,27.12Z"></path> <path class="cls-1" d="M55.18,53a1,1,0,0,1-1-1c0-3.57-2-5.54-5.54-5.54a1,1,0,0,1,0-2c3.57,0,5.54-2,5.54-5.54a1,1,0,0,1,2,0c0,3.57,2,5.54,5.54,5.54a1,1,0,1,1,0,2c-3.57,0-5.54,2-5.54,5.54A1,1,0,0,1,55.18,53ZM52.8,45.44a6.27,6.27,0,0,1,2.37,2.37,6.28,6.28,0,0,1,2.37-2.37,6.27,6.27,0,0,1-2.37-2.37A6.26,6.26,0,0,1,52.8,45.44Z"></path> <path class="cls-1" d="M14.86,9.25a1,1,0,0,1-1-1,1.75,1.75,0,0,0-2-2,1,1,0,0,1,0-2,1.75,1.75,0,0,0,2-2,1,1,0,0,1,2,0,1.75,1.75,0,0,0,2,2,1,1,0,0,1,0,2,1.75,1.75,0,0,0-2,2A1,1,0,0,1,14.86,9.25Zm-.18-4,.18.18L15,5.26l-.18-.18Z"></path> <path class="cls-1" d="M32.75,4.09A2,2,0,1,1,34.48.95h0a2,2,0,0,1-1.72,3.15Zm-.39-1.8a.46.46,0,0,0,.28.2A.48.48,0,0,0,33,2.43a.45.45,0,0,0-.14-.83.44.44,0,0,0-.34.06.46.46,0,0,0-.2.29A.45.45,0,0,0,32.37,2.29Zm0,0h0Z"></path> <path class="cls-1" d="M8,22.17a2,2,0,0,1-1.1-3.77A2,2,0,1,1,8,22.17Zm0-2.5a.45.45,0,0,0-.44.35.45.45,0,0,0,.34.54.45.45,0,0,0,.34-.06A.45.45,0,0,0,8,19.67Z"></path> <path class="cls-1" d="M63.84,11.91a2.07,2.07,0,0,1-.45,0,2,2,0,1,1,2.17-3.1h0a2,2,0,0,1-1.72,3.15Zm-.39-1.8a.46.46,0,0,0,.29.2.44.44,0,0,0,.34-.06.45.45,0,1,0-.63-.14Zm0,0h0Z"></path> </g> </g> </svg> 