<?xml version="1.0" encoding="UTF-8"?> <svg xmlns="http://www.w3.org/2000/svg" viewBox="0 0 68.91 68.91"> <defs> <style>.cls-1{fill:none;}.cls-2{fill:#4b21ff;}</style> </defs> <title>Ресурс 64</title> <g id="Слой_2" data-name="Слой 2"> <g id="Слой_1-2" data-name="Слой 1"> <rect class="cls-1" width="68.91" height="68.91"></rect> <path class="cls-2" d="M19,33.38a1.25,1.25,0,0,1-.88-.37L13,27.89a1.25,1.25,0,0,1,0-1.77l5.39-5.39a1.25,1.25,0,0,1,1.77,1.77L15.61,27l4.25,4.25A1.25,1.25,0,0,1,19,33.38Z"></path> <path class="cls-2" d="M36.17,33.88a1.25,1.25,0,0,1-.88-2.13l4.42-4.42-4.17-4.17a1.25,1.25,0,1,1,1.77-1.77l5.06,5.06a1.25,1.25,0,0,1,0,1.77l-5.31,5.31A1.25,1.25,0,0,1,36.17,33.88Z"></path> <path class="cls-2" d="M24.56,34.76A1.25,1.25,0,0,1,23.44,33L30.72,17.8A1.25,1.25,0,1,1,33,18.88L25.69,34.05A1.25,1.25,0,0,1,24.56,34.76Z"></path> <path class="cls-2" d="M5.51,53.55A1.25,1.25,0,0,1,4.26,52.3V16.1A6.45,6.45,0,0,1,10.7,9.66H46.21a6.45,6.45,0,0,1,6.45,6.45v20.2a6.45,6.45,0,0,1-6.45,6.45h-25a3.94,3.94,0,0,0-1.92.5l-13,10A1.24,1.24,0,0,1,5.51,53.55Zm5.2-41.39A4,4,0,0,0,6.76,16.1V49.76l11.06-8.54.13-.09a6.45,6.45,0,0,1,3.25-.88h25a4,4,0,0,0,3.95-3.95V16.1a4,4,0,0,0-3.95-3.95Z"></path> <path class="cls-2" d="M57.22,52.89a1.25,1.25,0,0,1-.88-2.13L58,49.12l-1.77-1.77A1.25,1.25,0,1,1,58,45.58l2.65,2.65a1.25,1.25,0,0,1,0,1.77L58.1,52.53A1.25,1.25,0,0,1,57.22,52.89Z"></path> <path class="cls-2" d="M44.82,52.89a1.25,1.25,0,0,1-.88-.37l-2.65-2.65a1.25,1.25,0,0,1,0-1.77l2.53-2.53a1.25,1.25,0,0,1,1.77,1.77L43.93,49l1.77,1.77a1.25,1.25,0,0,1-.88,2.13Z"></path> <path class="cls-2" d="M49.67,53.57a1.25,1.25,0,0,1-1.16-1.72l2.57-6.41a1.25,1.25,0,0,1,2.32.93l-2.57,6.41A1.25,1.25,0,0,1,49.67,53.57Z"></path> <path class="cls-2" d="M64.43,67.36a1.25,1.25,0,0,1-.78-.28L55.47,60.5a2,2,0,0,0-1-.24H38.71a4.54,4.54,0,0,1-4.53-4.53V45.94a1.25,1.25,0,0,1,2.5,0v9.79a2,2,0,0,0,2,2H54.52a4.54,4.54,0,0,1,2.29.62l.15.11,6.22,5V39.41a2,2,0,0,0-2-2H55.72a1.25,1.25,0,0,1,0-2.5h5.43a4.54,4.54,0,0,1,4.53,4.53v26.7a1.25,1.25,0,0,1-1.25,1.25Z"></path> <path class="cls-2" d="M17.32,60.88a1,1,0,0,1-1-1,1.75,1.75,0,0,0-2-2,1,1,0,0,1,0-2,1.75,1.75,0,0,0,2-2,1,1,0,0,1,2,0,1.75,1.75,0,0,0,2,2,1,1,0,1,1,0,2,1.75,1.75,0,0,0-2,2A1,1,0,0,1,17.32,60.88Zm-.18-4,.18.18.18-.18-.18-.18Z"></path> </g> </g> </svg> 