<?xml version="1.0" encoding="UTF-8"?> <svg xmlns="http://www.w3.org/2000/svg" viewBox="0 0 69.28 68.73"> <defs> <style>.cls-1{fill:#4b21ff;}</style> </defs> <title>Ресурс 63</title> <g id="Слой_2" data-name="Слой 2"> <g id="Слой_1-2" data-name="Слой 1"> <path class="cls-1" d="M21.55,64.54V53.15l.26-.11,2.48,2.48a2.24,2.24,0,0,1,.66,1.58v8.34a1,1,0,0,0,1,1H26a1,1,0,0,0,1-1V57.1a4.27,4.27,0,0,0-1.25-3l-3.24-3.24a3.31,3.31,0,0,1,1-.73l5.8-2.58,4.3,4.3V67.77a1,1,0,0,0,1,1h.1a1,1,0,0,0,1-1V51.83l4.3-4.3,5.8,2.58a3.31,3.31,0,0,1,1,.73l-3.24,3.24a4.27,4.27,0,0,0-1.25,3v8.34a1,1,0,0,0,1,1h.1a1,1,0,0,0,1-1V57.1A2.24,2.24,0,0,1,45,55.51L47.7,52.8h0V64.54a1,1,0,0,0,1,1h.1a1,1,0,0,0,1-1V53.15a5.35,5.35,0,0,0-3.18-4.89l-5.9-2.62A1.15,1.15,0,0,1,40,44.58V43a8.59,8.59,0,0,0,3.25-6.73V33.95a2.1,2.1,0,0,0,1.08-1.84v-.22a8.61,8.61,0,0,0-8.61-8.61H33.55a8.61,8.61,0,0,0-8.61,8.61v2a2.13,2.13,0,0,0,.81,1.71,2,2,0,0,0,.28.18v.45A8.59,8.59,0,0,0,29.28,43v1.62a1.15,1.15,0,0,1-.69,1.06l-5.9,2.62a5.35,5.35,0,0,0-3.18,4.89v11.4a1,1,0,0,0,1,1h.1A1,1,0,0,0,21.55,64.54ZM34.64,50,30.87,46.2a3.18,3.18,0,0,0,.45-1.63v-.41a8.6,8.6,0,0,0,6.65,0v.41a3.18,3.18,0,0,0,.45,1.63ZM28.06,36.23v-.46a6,6,0,0,0,1.84-1.2,1,1,0,0,0-1.38-1.49A3.64,3.64,0,0,1,27,34h0a.2.2,0,0,1,0-.09v-2a6.58,6.58,0,0,1,6.58-6.58h2.17a6.58,6.58,0,0,1,6.58,6.58v.22a.07.07,0,0,1,0,.07c-6.08,1.2-9.12-1.06-10.15-2.09a1,1,0,1,0-1.43,1.43c3.15,3.15,7.75,3.21,10.55,2.87v1.83a6.58,6.58,0,0,1-13.16,0Z"></path> <path class="cls-1" d="M18.3,42.73V40.56a7.52,7.52,0,0,0-3.45-6.32,4.22,4.22,0,0,0-2.91-5.32,3.42,3.42,0,0,0-1.18-.22A4.27,4.27,0,0,0,6.7,34.25a7.52,7.52,0,0,0-3.45,6.32v2.17a7.52,7.52,0,0,0,3.25,6.19v2.23a1.16,1.16,0,0,1-.64,1L2.36,53.94A4.27,4.27,0,0,0,0,57.76v2.3a1,1,0,0,0,1,1H1a1,1,0,0,0,1-1V58.2l1.65,1.65a2.24,2.24,0,0,1,.66,1.58v.75a1,1,0,0,0,1,1h.1a1,1,0,0,0,1-1v-.75a4.27,4.27,0,0,0-1.25-3l-2.3-2.3,0,0a2.27,2.27,0,0,1,.48-.33L6.78,54a3.25,3.25,0,0,0,.5-.31l2.48,2.48v7a1,1,0,0,0,1,1h.1a1,1,0,0,0,1-1v-7l2.48-2.48a3.18,3.18,0,0,0,.5.31l1,.48a1,1,0,0,0,.91-1.82l-1-.48a1.16,1.16,0,0,1-.64-1V48.92A7.52,7.52,0,0,0,18.3,42.73Zm-7.52-12A2.24,2.24,0,0,1,13,33a2.31,2.31,0,0,1,0,.4,7.53,7.53,0,0,0-4.4,0,2.3,2.3,0,0,1,0-.4A2.24,2.24,0,0,1,10.78,30.73Zm0,4.34a5.5,5.5,0,0,1,5.49,5.49v.37a6.37,6.37,0,0,1-6.85-2.06,1,1,0,0,0-1.53-.11,6.64,6.64,0,0,1-2.6,1.66A5.5,5.5,0,0,1,10.78,35.07Zm0,19.24L8.43,52a3.24,3.24,0,0,0,.11-.81V49.92a7.53,7.53,0,0,0,4.48,0v1.24a3.22,3.22,0,0,0,.11.81Zm0-6.09a5.5,5.5,0,0,1-5.49-5.49v-.21A8.13,8.13,0,0,0,8.54,40.9a9.17,9.17,0,0,0,1.88,1.37,8.07,8.07,0,0,0,3.88,1,8.51,8.51,0,0,0,2-.23A5.5,5.5,0,0,1,10.78,48.23Z"></path> <path class="cls-1" d="M67.25,55.59v4.1a1,1,0,0,0,1,1h0a1,1,0,0,0,1-1v-4.1a4.27,4.27,0,0,0-2.36-3.82l-5.68-2.84a1.15,1.15,0,0,1-.64-1V46.46a6.42,6.42,0,0,0,2.17-4.81V40.49h.07a1,1,0,0,0,1-1V37.31a6.44,6.44,0,0,0-6.44-6.44H55.25a6.44,6.44,0,0,0-6.44,6.44v2.17a1,1,0,0,0,1,1h.07v1.16a6.42,6.42,0,0,0,2.17,4.81V47.9A1.22,1.22,0,0,1,51.39,49a1,1,0,0,0,.94,1.8,3.2,3.2,0,0,0,.5-.31l2.48,2.48V63.16a1,1,0,0,0,1,1h.1a1,1,0,0,0,1-1V52.92l2.48-2.48a3.25,3.25,0,0,0,.5.31l5.5,2.75-1.67,1.67a4.27,4.27,0,0,0-1.25,3v4a1,1,0,0,0,1,1H64a1,1,0,0,0,1-1v-4a2.24,2.24,0,0,1,.66-1.58L67.17,55A2.26,2.26,0,0,1,67.25,55.59ZM50.84,38.26v-.95a4.41,4.41,0,0,1,4.41-4.41h2.17a4.41,4.41,0,0,1,4.41,4.41v1.13a15.52,15.52,0,0,1-7.1-2,1,1,0,0,0-1.28.13A6.65,6.65,0,0,1,50.84,38.26Zm5.49,12.8L54,48.71a3.22,3.22,0,0,0,.11-.81v-.22a6.43,6.43,0,0,0,4.48,0v.22a3.2,3.2,0,0,0,.11.81Zm0-5a4.41,4.41,0,0,1-4.41-4.41V40a8.59,8.59,0,0,0,2.38-1.45,18,18,0,0,0,6.44,1.83v1.26A4.41,4.41,0,0,1,56.33,46.06Z"></path> <path class="cls-1" d="M43.59,10.42H26.74a1,1,0,0,1,0-2H43.59a1,1,0,0,1,0,2Z"></path> <path class="cls-1" d="M35.16,18.85a1,1,0,0,1-1-1V1a1,1,0,0,1,2,0V17.85A1,1,0,0,1,35.16,18.85Z"></path> </g> </g> </svg> 